<svg width="1324" height="976" viewBox="0 0 1324 976" fill="none" xmlns="http://www.w3.org/2000/svg">
<rect x="1" y="296" width="1235" height="378" rx="20" fill="#2C2C2C" stroke="#414141" stroke-width="2"/>
<path d="M94.4314 597.091H99.2723L108.954 613.386H109.363L119.045 597.091H123.886L111.272 617.614V632H107.045V617.614L94.4314 597.091ZM135.741 632.545C133.377 632.545 131.304 631.983 129.519 630.858C127.747 629.733 126.36 628.159 125.36 626.136C124.372 624.114 123.877 621.75 123.877 619.045C123.877 616.318 124.372 613.937 125.36 611.903C126.36 609.869 127.747 608.29 129.519 607.165C131.304 606.04 133.377 605.477 135.741 605.477C138.105 605.477 140.173 606.04 141.946 607.165C143.73 608.29 145.116 609.869 146.105 611.903C147.105 613.937 147.605 616.318 147.605 619.045C147.605 621.75 147.105 624.114 146.105 626.136C145.116 628.159 143.73 629.733 141.946 630.858C140.173 631.983 138.105 632.545 135.741 632.545ZM135.741 628.932C137.536 628.932 139.014 628.472 140.173 627.551C141.332 626.631 142.19 625.42 142.747 623.92C143.304 622.42 143.582 620.795 143.582 619.045C143.582 617.295 143.304 615.665 142.747 614.153C142.19 612.642 141.332 611.42 140.173 610.489C139.014 609.557 137.536 609.091 135.741 609.091C133.946 609.091 132.468 609.557 131.309 610.489C130.15 611.42 129.292 612.642 128.735 614.153C128.179 615.665 127.9 617.295 127.9 619.045C127.9 620.795 128.179 622.42 128.735 623.92C129.292 625.42 130.15 626.631 131.309 627.551C132.468 628.472 133.946 628.932 135.741 628.932ZM170.245 621.295V605.818H174.268V632H170.245V627.568H169.973C169.359 628.898 168.404 630.028 167.109 630.96C165.813 631.881 164.177 632.341 162.2 632.341C160.563 632.341 159.109 631.983 157.836 631.267C156.563 630.54 155.563 629.449 154.836 627.994C154.109 626.528 153.745 624.682 153.745 622.455V605.818H157.768V622.182C157.768 624.091 158.302 625.614 159.37 626.75C160.45 627.886 161.825 628.455 163.495 628.455C164.495 628.455 165.512 628.199 166.546 627.688C167.592 627.176 168.467 626.392 169.171 625.335C169.887 624.278 170.245 622.932 170.245 621.295ZM181.636 632V605.818H185.522V609.773H185.795C186.272 608.477 187.136 607.426 188.386 606.619C189.636 605.812 191.045 605.409 192.613 605.409C192.909 605.409 193.278 605.415 193.721 605.426C194.164 605.437 194.5 605.455 194.727 605.477V609.568C194.59 609.534 194.278 609.483 193.789 609.415C193.312 609.335 192.806 609.295 192.272 609.295C191 609.295 189.863 609.562 188.863 610.097C187.875 610.619 187.09 611.347 186.511 612.278C185.943 613.199 185.659 614.25 185.659 615.432V632H181.636ZM241.223 597.091V632H237.132L218.109 604.591H217.768V632H213.541V597.091H217.632L236.723 624.568H237.063V597.091H241.223ZM260.113 632.545C257.59 632.545 255.414 631.989 253.585 630.875C251.767 629.75 250.363 628.182 249.375 626.17C248.397 624.148 247.909 621.795 247.909 619.114C247.909 616.432 248.397 614.068 249.375 612.023C250.363 609.966 251.738 608.364 253.5 607.216C255.272 606.057 257.34 605.477 259.704 605.477C261.068 605.477 262.414 605.705 263.744 606.159C265.073 606.614 266.284 607.352 267.375 608.375C268.465 609.386 269.335 610.727 269.983 612.398C270.63 614.068 270.954 616.125 270.954 618.568V620.273H250.772V616.795H266.863C266.863 615.318 266.568 614 265.977 612.841C265.397 611.682 264.568 610.767 263.488 610.097C262.42 609.426 261.159 609.091 259.704 609.091C258.102 609.091 256.715 609.489 255.545 610.284C254.386 611.068 253.494 612.091 252.869 613.352C252.244 614.614 251.931 615.966 251.931 617.409V619.727C251.931 621.705 252.272 623.381 252.954 624.756C253.647 626.119 254.608 627.159 255.835 627.875C257.062 628.58 258.488 628.932 260.113 628.932C261.17 628.932 262.125 628.784 262.977 628.489C263.84 628.182 264.585 627.727 265.21 627.125C265.835 626.511 266.318 625.75 266.659 624.841L270.545 625.932C270.136 627.25 269.448 628.409 268.483 629.409C267.517 630.398 266.323 631.17 264.903 631.727C263.483 632.273 261.886 632.545 260.113 632.545ZM288.46 605.818V609.227H274.892V605.818H288.46ZM278.846 599.545H282.869V624.5C282.869 625.636 283.034 626.489 283.363 627.057C283.704 627.614 284.136 627.989 284.659 628.182C285.193 628.364 285.755 628.455 286.346 628.455C286.789 628.455 287.153 628.432 287.437 628.386C287.721 628.33 287.948 628.284 288.119 628.25L288.937 631.864C288.664 631.966 288.284 632.068 287.795 632.17C287.306 632.284 286.687 632.341 285.937 632.341C284.801 632.341 283.687 632.097 282.596 631.608C281.517 631.119 280.619 630.375 279.903 629.375C279.198 628.375 278.846 627.114 278.846 625.591V599.545ZM300.443 632L292.465 605.818H296.693L302.352 625.864H302.625L308.215 605.818H312.511L318.034 625.795H318.306L323.965 605.818H328.193L320.215 632H316.261L310.534 611.886H310.125L304.397 632H300.443ZM343.257 632.545C340.893 632.545 338.819 631.983 337.035 630.858C335.262 629.733 333.876 628.159 332.876 626.136C331.887 624.114 331.393 621.75 331.393 619.045C331.393 616.318 331.887 613.937 332.876 611.903C333.876 609.869 335.262 608.29 337.035 607.165C338.819 606.04 340.893 605.477 343.257 605.477C345.62 605.477 347.688 606.04 349.461 607.165C351.245 608.29 352.632 609.869 353.62 611.903C354.62 613.937 355.12 616.318 355.12 619.045C355.12 621.75 354.62 624.114 353.62 626.136C352.632 628.159 351.245 629.733 349.461 630.858C347.688 631.983 345.62 632.545 343.257 632.545ZM343.257 628.932C345.052 628.932 346.529 628.472 347.688 627.551C348.848 626.631 349.706 625.42 350.262 623.92C350.819 622.42 351.098 620.795 351.098 619.045C351.098 617.295 350.819 615.665 350.262 614.153C349.706 612.642 348.848 611.42 347.688 610.489C346.529 609.557 345.052 609.091 343.257 609.091C341.461 609.091 339.984 609.557 338.825 610.489C337.666 611.42 336.808 612.642 336.251 614.153C335.694 615.665 335.416 617.295 335.416 619.045C335.416 620.795 335.694 622.42 336.251 623.92C336.808 625.42 337.666 626.631 338.825 627.551C339.984 628.472 341.461 628.932 343.257 628.932ZM361.261 632V605.818H365.147V609.773H365.42C365.897 608.477 366.761 607.426 368.011 606.619C369.261 605.812 370.67 605.409 372.238 605.409C372.534 605.409 372.903 605.415 373.346 605.426C373.789 605.437 374.125 605.455 374.352 605.477V609.568C374.215 609.534 373.903 609.483 373.414 609.415C372.937 609.335 372.431 609.295 371.897 609.295C370.625 609.295 369.488 609.562 368.488 610.097C367.5 610.619 366.715 611.347 366.136 612.278C365.568 613.199 365.284 614.25 365.284 615.432V632H361.261ZM382.87 622.455L382.802 617.477H383.62L395.075 605.818H400.052L387.848 618.159H387.507L382.87 622.455ZM379.12 632V597.091H383.143V632H379.12ZM395.757 632L385.529 619.045L388.393 616.25L400.87 632H395.757Z" fill="white"/>
<path d="M69.8203 619.333H61.1024C59.8986 619.333 58.9229 620.434 58.9229 621.792V631.625C58.9229 632.983 59.8986 634.083 61.1024 634.083H69.8203C71.024 634.083 71.9998 632.983 71.9998 631.625V621.792C71.9998 620.434 71.024 619.333 69.8203 619.333Z" stroke="white" stroke-width="4" stroke-linecap="round" stroke-linejoin="round"/>
<path d="M39.3076 619.333H30.5897C29.386 619.333 28.4102 620.434 28.4102 621.792V631.625C28.4102 632.983 29.386 634.083 30.5897 634.083H39.3076C40.5114 634.083 41.4871 632.983 41.4871 631.625V621.792C41.4871 620.434 40.5114 619.333 39.3076 619.333Z" stroke="white" stroke-width="4" stroke-linecap="round" stroke-linejoin="round"/>
<path d="M54.5635 584.917H45.8455C44.6418 584.917 43.666 586.017 43.666 587.375V597.208C43.666 598.566 44.6418 599.667 45.8455 599.667H54.5635C55.7672 599.667 56.743 598.566 56.743 597.208V587.375C56.743 586.017 55.7672 584.917 54.5635 584.917Z" stroke="white" stroke-width="4" stroke-linecap="round" stroke-linejoin="round"/>
<path d="M34.9482 619.333V611.958C34.9482 611.306 35.1779 610.681 35.5866 610.22C35.9953 609.759 36.5497 609.5 37.1277 609.5H63.2817C63.8598 609.5 64.4141 609.759 64.8229 610.22C65.2316 610.681 65.4612 611.306 65.4612 611.958V619.333" stroke="white" stroke-width="4" stroke-linecap="round" stroke-linejoin="round"/>
<path d="M50.2051 609.5V599.667" stroke="white" stroke-width="4" stroke-linecap="round" stroke-linejoin="round"/>
<rect x="204" y="3" width="269" height="112" rx="15" fill="black" stroke="#3A3A3A" stroke-width="2"/>
<g filter="url(#filter0_d_19_506)">
<path d="M287.166 80.625V75.7083C287.166 73.1004 286.13 70.5992 284.286 68.7551C282.442 66.911 279.941 65.875 277.333 65.875H257.666C255.058 65.875 252.557 66.911 250.713 68.7551C248.869 70.5992 247.833 73.1004 247.833 75.7083V80.625M277.333 46.2083C277.333 51.6391 272.93 56.0417 267.5 56.0417C262.069 56.0417 257.666 51.6391 257.666 46.2083C257.666 40.7775 262.069 36.375 267.5 36.375C272.93 36.375 277.333 40.7775 277.333 46.2083Z" stroke="#F36017" stroke-width="4" stroke-linecap="round" stroke-linejoin="round"/>
</g>
<path d="M356.136 41.0909H360.364V64.2045C360.364 66.5909 359.801 68.7216 358.676 70.5966C357.563 72.4602 355.989 73.9318 353.955 75.0114C351.92 76.0795 349.534 76.6136 346.795 76.6136C344.057 76.6136 341.67 76.0795 339.636 75.0114C337.602 73.9318 336.023 72.4602 334.898 70.5966C333.784 68.7216 333.227 66.5909 333.227 64.2045V41.0909H337.455V63.8636C337.455 65.5682 337.83 67.0852 338.58 68.4148C339.33 69.733 340.398 70.7727 341.784 71.5341C343.182 72.2841 344.852 72.6591 346.795 72.6591C348.739 72.6591 350.409 72.2841 351.807 71.5341C353.205 70.7727 354.273 69.733 355.011 68.4148C355.761 67.0852 356.136 65.5682 356.136 63.8636V41.0909ZM386.805 55.6818L383.192 56.7045C382.964 56.1023 382.629 55.517 382.186 54.9489C381.754 54.3693 381.163 53.892 380.413 53.517C379.663 53.142 378.703 52.9545 377.533 52.9545C375.93 52.9545 374.595 53.3239 373.527 54.0625C372.47 54.7898 371.942 55.7159 371.942 56.8409C371.942 57.8409 372.305 58.6307 373.033 59.2102C373.76 59.7898 374.896 60.2727 376.442 60.6591L380.328 61.6136C382.669 62.1818 384.413 63.0511 385.561 64.2216C386.709 65.3807 387.283 66.875 387.283 68.7045C387.283 70.2045 386.851 71.5455 385.987 72.7273C385.135 73.9091 383.942 74.8409 382.408 75.5227C380.874 76.2045 379.089 76.5455 377.055 76.5455C374.385 76.5455 372.175 75.9659 370.425 74.8068C368.675 73.6477 367.567 71.9545 367.101 69.7273L370.919 68.7727C371.283 70.1818 371.97 71.2386 372.982 71.9432C374.004 72.6477 375.339 73 376.987 73C378.862 73 380.351 72.6023 381.453 71.8068C382.567 71 383.124 70.0341 383.124 68.9091C383.124 68 382.805 67.2386 382.169 66.625C381.533 66 380.555 65.5341 379.237 65.2273L374.874 64.2045C372.476 63.6364 370.714 62.7557 369.589 61.5625C368.476 60.358 367.919 58.8523 367.919 57.0455C367.919 55.5682 368.334 54.2614 369.163 53.125C370.004 51.9886 371.146 51.0966 372.589 50.4489C374.044 49.8011 375.692 49.4773 377.533 49.4773C380.124 49.4773 382.158 50.0455 383.635 51.1818C385.124 52.3182 386.18 53.8182 386.805 55.6818ZM404.315 76.5455C401.793 76.5455 399.616 75.9886 397.787 74.875C395.969 73.75 394.565 72.1818 393.577 70.1705C392.599 68.1477 392.111 65.7955 392.111 63.1136C392.111 60.4318 392.599 58.0682 393.577 56.0227C394.565 53.9659 395.94 52.3636 397.702 51.2159C399.474 50.0568 401.543 49.4773 403.906 49.4773C405.27 49.4773 406.616 49.7045 407.946 50.1591C409.276 50.6136 410.486 51.3523 411.577 52.375C412.668 53.3864 413.537 54.7273 414.185 56.3977C414.832 58.0682 415.156 60.125 415.156 62.5682V64.2727H394.974V60.7955H411.065C411.065 59.3182 410.77 58 410.179 56.8409C409.599 55.6818 408.77 54.767 407.69 54.0966C406.622 53.4261 405.361 53.0909 403.906 53.0909C402.304 53.0909 400.918 53.4886 399.747 54.2841C398.588 55.0682 397.696 56.0909 397.071 57.3523C396.446 58.6136 396.134 59.9659 396.134 61.4091V63.7273C396.134 65.7045 396.474 67.3807 397.156 68.7557C397.849 70.1193 398.81 71.1591 400.037 71.875C401.264 72.5795 402.69 72.9318 404.315 72.9318C405.372 72.9318 406.327 72.7841 407.179 72.4886C408.043 72.1818 408.787 71.7273 409.412 71.125C410.037 70.5114 410.52 69.75 410.861 68.8409L414.747 69.9318C414.338 71.25 413.651 72.4091 412.685 73.4091C411.719 74.3977 410.526 75.1705 409.105 75.7273C407.685 76.2727 406.088 76.5455 404.315 76.5455ZM421.276 76V49.8182H425.162V53.7727H425.435C425.912 52.4773 426.776 51.4261 428.026 50.6193C429.276 49.8125 430.685 49.4091 432.253 49.4091C432.548 49.4091 432.918 49.4148 433.361 49.4261C433.804 49.4375 434.139 49.4545 434.366 49.4773V53.5682C434.23 53.5341 433.918 53.483 433.429 53.4148C432.952 53.3352 432.446 53.2955 431.912 53.2955C430.639 53.2955 429.503 53.5625 428.503 54.0966C427.514 54.6193 426.73 55.3466 426.151 56.2784C425.582 57.1989 425.298 58.25 425.298 59.4318V76H421.276Z" fill="white"/>
<rect x="629" y="2" width="269" height="112" rx="15" fill="black" stroke="#3A3A3A" stroke-width="2"/>
<g filter="url(#filter1_d_19_506)">
<path d="M712.166 79.625V74.7083C712.166 72.1004 711.13 69.5992 709.286 67.7551C707.442 65.911 704.941 64.875 702.333 64.875H682.666C680.058 64.875 677.557 65.911 675.713 67.7551C673.869 69.5992 672.833 72.1004 672.833 74.7083V79.625M702.333 45.2083C702.333 50.6391 697.93 55.0417 692.5 55.0417C687.069 55.0417 682.666 50.6391 682.666 45.2083C682.666 39.7775 687.069 35.375 692.5 35.375C697.93 35.375 702.333 39.7775 702.333 45.2083Z" stroke="#F36017" stroke-width="4" stroke-linecap="round" stroke-linejoin="round"/>
</g>
<path d="M781.136 40.0909H785.364V63.2045C785.364 65.5909 784.801 67.7216 783.676 69.5966C782.563 71.4602 780.989 72.9318 778.955 74.0114C776.92 75.0795 774.534 75.6136 771.795 75.6136C769.057 75.6136 766.67 75.0795 764.636 74.0114C762.602 72.9318 761.023 71.4602 759.898 69.5966C758.784 67.7216 758.227 65.5909 758.227 63.2045V40.0909H762.455V62.8636C762.455 64.5682 762.83 66.0852 763.58 67.4148C764.33 68.733 765.398 69.7727 766.784 70.5341C768.182 71.2841 769.852 71.6591 771.795 71.6591C773.739 71.6591 775.409 71.2841 776.807 70.5341C778.205 69.7727 779.273 68.733 780.011 67.4148C780.761 66.0852 781.136 64.5682 781.136 62.8636V40.0909ZM811.805 54.6818L808.192 55.7045C807.964 55.1023 807.629 54.517 807.186 53.9489C806.754 53.3693 806.163 52.892 805.413 52.517C804.663 52.142 803.703 51.9545 802.533 51.9545C800.93 51.9545 799.595 52.3239 798.527 53.0625C797.47 53.7898 796.942 54.7159 796.942 55.8409C796.942 56.8409 797.305 57.6307 798.033 58.2102C798.76 58.7898 799.896 59.2727 801.442 59.6591L805.328 60.6136C807.669 61.1818 809.413 62.0511 810.561 63.2216C811.709 64.3807 812.283 65.875 812.283 67.7045C812.283 69.2045 811.851 70.5455 810.987 71.7273C810.135 72.9091 808.942 73.8409 807.408 74.5227C805.874 75.2045 804.089 75.5455 802.055 75.5455C799.385 75.5455 797.175 74.9659 795.425 73.8068C793.675 72.6477 792.567 70.9545 792.101 68.7273L795.919 67.7727C796.283 69.1818 796.97 70.2386 797.982 70.9432C799.004 71.6477 800.339 72 801.987 72C803.862 72 805.351 71.6023 806.453 70.8068C807.567 70 808.124 69.0341 808.124 67.9091C808.124 67 807.805 66.2386 807.169 65.625C806.533 65 805.555 64.5341 804.237 64.2273L799.874 63.2045C797.476 62.6364 795.714 61.7557 794.589 60.5625C793.476 59.358 792.919 57.8523 792.919 56.0455C792.919 54.5682 793.334 53.2614 794.163 52.125C795.004 50.9886 796.146 50.0966 797.589 49.4489C799.044 48.8011 800.692 48.4773 802.533 48.4773C805.124 48.4773 807.158 49.0455 808.635 50.1818C810.124 51.3182 811.18 52.8182 811.805 54.6818ZM829.315 75.5455C826.793 75.5455 824.616 74.9886 822.787 73.875C820.969 72.75 819.565 71.1818 818.577 69.1705C817.599 67.1477 817.111 64.7955 817.111 62.1136C817.111 59.4318 817.599 57.0682 818.577 55.0227C819.565 52.9659 820.94 51.3636 822.702 50.2159C824.474 49.0568 826.543 48.4773 828.906 48.4773C830.27 48.4773 831.616 48.7045 832.946 49.1591C834.276 49.6136 835.486 50.3523 836.577 51.375C837.668 52.3864 838.537 53.7273 839.185 55.3977C839.832 57.0682 840.156 59.125 840.156 61.5682V63.2727H819.974V59.7955H836.065C836.065 58.3182 835.77 57 835.179 55.8409C834.599 54.6818 833.77 53.767 832.69 53.0966C831.622 52.4261 830.361 52.0909 828.906 52.0909C827.304 52.0909 825.918 52.4886 824.747 53.2841C823.588 54.0682 822.696 55.0909 822.071 56.3523C821.446 57.6136 821.134 58.9659 821.134 60.4091V62.7273C821.134 64.7045 821.474 66.3807 822.156 67.7557C822.849 69.1193 823.81 70.1591 825.037 70.875C826.264 71.5795 827.69 71.9318 829.315 71.9318C830.372 71.9318 831.327 71.7841 832.179 71.4886C833.043 71.1818 833.787 70.7273 834.412 70.125C835.037 69.5114 835.52 68.75 835.861 67.8409L839.747 68.9318C839.338 70.25 838.651 71.4091 837.685 72.4091C836.719 73.3977 835.526 74.1705 834.105 74.7273C832.685 75.2727 831.088 75.5455 829.315 75.5455ZM846.276 75V48.8182H850.162V52.7727H850.435C850.912 51.4773 851.776 50.4261 853.026 49.6193C854.276 48.8125 855.685 48.4091 857.253 48.4091C857.548 48.4091 857.918 48.4148 858.361 48.4261C858.804 48.4375 859.139 48.4545 859.366 48.4773V52.5682C859.23 52.5341 858.918 52.483 858.429 52.4148C857.952 52.3352 857.446 52.2955 856.912 52.2955C855.639 52.2955 854.503 52.5625 853.503 53.0966C852.514 53.6193 851.73 54.3466 851.151 55.2784C850.582 56.1989 850.298 57.25 850.298 58.4318V75H846.276Z" fill="white"/>
<rect x="1054" y="1" width="269" height="112" rx="15" fill="black" stroke="#3A3A3A" stroke-width="2"/>
<g filter="url(#filter2_d_19_506)">
<path d="M1137.17 78.625V73.7083C1137.17 71.1004 1136.13 68.5992 1134.29 66.7551C1132.44 64.911 1129.94 63.875 1127.33 63.875H1107.67C1105.06 63.875 1102.56 64.911 1100.71 66.7551C1098.87 68.5992 1097.83 71.1004 1097.83 73.7083V78.625M1127.33 44.2083C1127.33 49.6391 1122.93 54.0417 1117.5 54.0417C1112.07 54.0417 1107.67 49.6391 1107.67 44.2083C1107.67 38.7775 1112.07 34.375 1117.5 34.375C1122.93 34.375 1127.33 38.7775 1127.33 44.2083Z" stroke="#F36017" stroke-width="4" stroke-linecap="round" stroke-linejoin="round"/>
</g>
<path d="M1206.14 39.0909H1210.36V62.2045C1210.36 64.5909 1209.8 66.7216 1208.68 68.5966C1207.56 70.4602 1205.99 71.9318 1203.95 73.0114C1201.92 74.0795 1199.53 74.6136 1196.8 74.6136C1194.06 74.6136 1191.67 74.0795 1189.64 73.0114C1187.6 71.9318 1186.02 70.4602 1184.9 68.5966C1183.78 66.7216 1183.23 64.5909 1183.23 62.2045V39.0909H1187.45V61.8636C1187.45 63.5682 1187.83 65.0852 1188.58 66.4148C1189.33 67.733 1190.4 68.7727 1191.78 69.5341C1193.18 70.2841 1194.85 70.6591 1196.8 70.6591C1198.74 70.6591 1200.41 70.2841 1201.81 69.5341C1203.2 68.7727 1204.27 67.733 1205.01 66.4148C1205.76 65.0852 1206.14 63.5682 1206.14 61.8636V39.0909ZM1236.81 53.6818L1233.19 54.7045C1232.96 54.1023 1232.63 53.517 1232.19 52.9489C1231.75 52.3693 1231.16 51.892 1230.41 51.517C1229.66 51.142 1228.7 50.9545 1227.53 50.9545C1225.93 50.9545 1224.6 51.3239 1223.53 52.0625C1222.47 52.7898 1221.94 53.7159 1221.94 54.8409C1221.94 55.8409 1222.31 56.6307 1223.03 57.2102C1223.76 57.7898 1224.9 58.2727 1226.44 58.6591L1230.33 59.6136C1232.67 60.1818 1234.41 61.0511 1235.56 62.2216C1236.71 63.3807 1237.28 64.875 1237.28 66.7045C1237.28 68.2045 1236.85 69.5455 1235.99 70.7273C1235.13 71.9091 1233.94 72.8409 1232.41 73.5227C1230.87 74.2045 1229.09 74.5455 1227.06 74.5455C1224.38 74.5455 1222.17 73.9659 1220.42 72.8068C1218.67 71.6477 1217.57 69.9545 1217.1 67.7273L1220.92 66.7727C1221.28 68.1818 1221.97 69.2386 1222.98 69.9432C1224 70.6477 1225.34 71 1226.99 71C1228.86 71 1230.35 70.6023 1231.45 69.8068C1232.57 69 1233.12 68.0341 1233.12 66.9091C1233.12 66 1232.81 65.2386 1232.17 64.625C1231.53 64 1230.56 63.5341 1229.24 63.2273L1224.87 62.2045C1222.48 61.6364 1220.71 60.7557 1219.59 59.5625C1218.48 58.358 1217.92 56.8523 1217.92 55.0455C1217.92 53.5682 1218.33 52.2614 1219.16 51.125C1220 49.9886 1221.15 49.0966 1222.59 48.4489C1224.04 47.8011 1225.69 47.4773 1227.53 47.4773C1230.12 47.4773 1232.16 48.0455 1233.63 49.1818C1235.12 50.3182 1236.18 51.8182 1236.81 53.6818ZM1254.32 74.5455C1251.79 74.5455 1249.62 73.9886 1247.79 72.875C1245.97 71.75 1244.57 70.1818 1243.58 68.1705C1242.6 66.1477 1242.11 63.7955 1242.11 61.1136C1242.11 58.4318 1242.6 56.0682 1243.58 54.0227C1244.57 51.9659 1245.94 50.3636 1247.7 49.2159C1249.47 48.0568 1251.54 47.4773 1253.91 47.4773C1255.27 47.4773 1256.62 47.7045 1257.95 48.1591C1259.28 48.6136 1260.49 49.3523 1261.58 50.375C1262.67 51.3864 1263.54 52.7273 1264.18 54.3977C1264.83 56.0682 1265.16 58.125 1265.16 60.5682V62.2727H1244.97V58.7955H1261.07C1261.07 57.3182 1260.77 56 1260.18 54.8409C1259.6 53.6818 1258.77 52.767 1257.69 52.0966C1256.62 51.4261 1255.36 51.0909 1253.91 51.0909C1252.3 51.0909 1250.92 51.4886 1249.75 52.2841C1248.59 53.0682 1247.7 54.0909 1247.07 55.3523C1246.45 56.6136 1246.13 57.9659 1246.13 59.4091V61.7273C1246.13 63.7045 1246.47 65.3807 1247.16 66.7557C1247.85 68.1193 1248.81 69.1591 1250.04 69.875C1251.26 70.5795 1252.69 70.9318 1254.32 70.9318C1255.37 70.9318 1256.33 70.7841 1257.18 70.4886C1258.04 70.1818 1258.79 69.7273 1259.41 69.125C1260.04 68.5114 1260.52 67.75 1260.86 66.8409L1264.75 67.9318C1264.34 69.25 1263.65 70.4091 1262.68 71.4091C1261.72 72.3977 1260.53 73.1705 1259.11 73.7273C1257.68 74.2727 1256.09 74.5455 1254.32 74.5455ZM1271.28 74V47.8182H1275.16V51.7727H1275.43C1275.91 50.4773 1276.78 49.4261 1278.03 48.6193C1279.28 47.8125 1280.68 47.4091 1282.25 47.4091C1282.55 47.4091 1282.92 47.4148 1283.36 47.4261C1283.8 47.4375 1284.14 47.4545 1284.37 47.4773V51.5682C1284.23 51.5341 1283.92 51.483 1283.43 51.4148C1282.95 51.3352 1282.45 51.2955 1281.91 51.2955C1280.64 51.2955 1279.5 51.5625 1278.5 52.0966C1277.51 52.6193 1276.73 53.3466 1276.15 54.2784C1275.58 55.1989 1275.3 56.25 1275.3 57.4318V74H1271.28Z" fill="white"/>
<rect x="860" y="865" width="278" height="110" rx="15" fill="black" stroke="#3A3A3A" stroke-width="2"/>
<path d="M1018.91 902.091V937H1014.82L995.795 909.591H995.455V937H991.227V902.091H995.318L1014.41 929.568H1014.75V902.091H1018.91ZM1037.8 937.545C1035.28 937.545 1033.1 936.989 1031.27 935.875C1029.45 934.75 1028.05 933.182 1027.06 931.17C1026.08 929.148 1025.6 926.795 1025.6 924.114C1025.6 921.432 1026.08 919.068 1027.06 917.023C1028.05 914.966 1029.42 913.364 1031.19 912.216C1032.96 911.057 1035.03 910.477 1037.39 910.477C1038.75 910.477 1040.1 910.705 1041.43 911.159C1042.76 911.614 1043.97 912.352 1045.06 913.375C1046.15 914.386 1047.02 915.727 1047.67 917.398C1048.32 919.068 1048.64 921.125 1048.64 923.568V925.273H1028.46V921.795H1044.55C1044.55 920.318 1044.25 919 1043.66 917.841C1043.08 916.682 1042.25 915.767 1041.17 915.097C1040.11 914.426 1038.85 914.091 1037.39 914.091C1035.79 914.091 1034.4 914.489 1033.23 915.284C1032.07 916.068 1031.18 917.091 1030.56 918.352C1029.93 919.614 1029.62 920.966 1029.62 922.409V924.727C1029.62 926.705 1029.96 928.381 1030.64 929.756C1031.33 931.119 1032.29 932.159 1033.52 932.875C1034.75 933.58 1036.17 933.932 1037.8 933.932C1038.86 933.932 1039.81 933.784 1040.66 933.489C1041.53 933.182 1042.27 932.727 1042.9 932.125C1043.52 931.511 1044 930.75 1044.35 929.841L1048.23 930.932C1047.82 932.25 1047.13 933.409 1046.17 934.409C1045.2 935.398 1044.01 936.17 1042.59 936.727C1041.17 937.273 1039.57 937.545 1037.8 937.545ZM1060.69 937L1052.71 910.818H1056.94L1062.6 930.864H1062.87L1068.46 910.818H1072.76L1078.28 930.795H1078.56L1084.21 910.818H1088.44L1080.46 937H1076.51L1070.78 916.886H1070.37L1064.65 937H1060.69ZM1105.15 910.818V914.227H1091.58V910.818H1105.15ZM1095.53 904.545H1099.56V929.5C1099.56 930.636 1099.72 931.489 1100.05 932.057C1100.39 932.614 1100.82 932.989 1101.35 933.182C1101.88 933.364 1102.44 933.455 1103.03 933.455C1103.48 933.455 1103.84 933.432 1104.12 933.386C1104.41 933.33 1104.63 933.284 1104.81 933.25L1105.62 936.864C1105.35 936.966 1104.97 937.068 1104.48 937.17C1103.99 937.284 1103.37 937.341 1102.62 937.341C1101.49 937.341 1100.37 937.097 1099.28 936.608C1098.2 936.119 1097.31 935.375 1096.59 934.375C1095.88 933.375 1095.53 932.114 1095.53 930.591V904.545Z" fill="white"/>
<path d="M944.167 895.917H904.834C902.118 895.917 899.917 898.118 899.917 900.833V910.667C899.917 913.382 902.118 915.583 904.834 915.583H944.167C946.882 915.583 949.084 913.382 949.084 910.667V900.833C949.084 898.118 946.882 895.917 944.167 895.917Z" stroke="#F36017" stroke-width="4" stroke-linecap="round" stroke-linejoin="round"/>
<path d="M944.167 925.417H904.834C902.118 925.417 899.917 927.618 899.917 930.333V940.167C899.917 942.882 902.118 945.083 904.834 945.083H944.167C946.882 945.083 949.084 942.882 949.084 940.167V930.333C949.084 927.618 946.882 925.417 944.167 925.417Z" stroke="#F36017" stroke-width="4" stroke-linecap="round" stroke-linejoin="round"/>
<path d="M909.75 905.75H909.774" stroke="#F36017" stroke-width="4" stroke-linecap="round" stroke-linejoin="round"/>
<path d="M909.75 935.25H909.774" stroke="#F36017" stroke-width="4" stroke-linecap="round" stroke-linejoin="round"/>
<circle cx="999" cy="488" r="130" fill="black" stroke="#3A3A3A" stroke-width="2"/>
<g clip-path="url(#clip0_19_506)">
<path d="M1032.57 432.296C1034.46 432.296 1035.99 433.838 1035.99 435.74C1035.99 437.642 1034.46 439.185 1032.57 439.185C1030.67 439.185 1029.14 437.642 1029.14 435.74C1029.14 433.838 1030.67 432.296 1032.57 432.296ZM1046.02 446.67C1045.67 458.111 1036.99 473.234 1025.21 477.123C1011.44 481.666 1001 474.85 997.684 466.86C995.104 460.634 997.053 453.187 1001.87 450.035C1005.94 447.373 1013.51 446.67 1019.87 450.876C1017.64 444.987 1011.62 441.117 1006.28 439.94C1000.95 438.762 995.448 440.108 991.491 442.127C996.566 436.491 1008.45 431.017 1021.36 437.921C1030.02 442.547 1033.75 449.025 1037.42 457.774C1047.05 442.968 1040.34 425.134 1028.65 414.534C1016.72 403.727 1000.61 399.391 988.281 400.068C992.349 402.592 997.13 406.195 1001.55 410.412C982.031 407.972 965.948 412.431 956 426.031C961.557 424.929 968.886 424.237 976.18 424.599C961.963 434.668 953.706 451.605 957.904 469.279C960.469 464.773 964.305 459.359 968.871 454.453C967.467 467.645 969.417 485.479 986.29 497C985.429 493.383 984.732 488.984 984.414 484.328C992.307 490.519 1003.77 495.621 1017.98 492.097C1043.09 485.872 1049.8 461.476 1046.02 446.67Z" fill="#F36118"/>
</g>
<path d="M916.523 524.909H920.727L930.614 549.057H930.955L940.841 524.909H945.045V554H941.75V531.898H941.466L932.375 554H929.193L920.102 531.898H919.818V554H916.523V524.909ZM958.075 554.511C956.692 554.511 955.437 554.251 954.31 553.73C953.183 553.2 952.289 552.438 951.626 551.443C950.963 550.439 950.631 549.227 950.631 547.807C950.631 546.557 950.878 545.544 951.37 544.767C951.862 543.981 952.521 543.366 953.344 542.92C954.168 542.475 955.077 542.144 956.072 541.926C957.076 541.699 958.084 541.519 959.097 541.386C960.423 541.216 961.498 541.088 962.322 541.003C963.155 540.908 963.761 540.752 964.14 540.534C964.528 540.316 964.722 539.937 964.722 539.398V539.284C964.722 537.883 964.339 536.794 963.572 536.017C962.814 535.241 961.664 534.852 960.12 534.852C958.52 534.852 957.265 535.203 956.356 535.903C955.447 536.604 954.808 537.352 954.438 538.148L951.256 537.011C951.825 535.686 952.582 534.653 953.529 533.915C954.486 533.167 955.527 532.646 956.654 532.352C957.79 532.049 958.908 531.898 960.006 531.898C960.707 531.898 961.512 531.983 962.421 532.153C963.34 532.314 964.225 532.651 965.077 533.162C965.939 533.673 966.654 534.445 967.222 535.477C967.79 536.509 968.075 537.892 968.075 539.625V554H964.722V551.045H964.552C964.325 551.519 963.946 552.026 963.415 552.565C962.885 553.105 962.18 553.564 961.299 553.943C960.418 554.322 959.344 554.511 958.075 554.511ZM958.586 551.5C959.912 551.5 961.029 551.24 961.938 550.719C962.857 550.198 963.548 549.526 964.012 548.702C964.486 547.878 964.722 547.011 964.722 546.102V543.034C964.58 543.205 964.268 543.361 963.785 543.503C963.311 543.635 962.762 543.754 962.137 543.858C961.522 543.953 960.92 544.038 960.333 544.114C959.755 544.18 959.287 544.237 958.927 544.284C958.056 544.398 957.241 544.582 956.484 544.838C955.736 545.084 955.129 545.458 954.665 545.96C954.211 546.453 953.984 547.125 953.984 547.977C953.984 549.142 954.415 550.023 955.276 550.619C956.147 551.206 957.251 551.5 958.586 551.5ZM977.545 540.875V554H974.193V532.182H977.432V535.591H977.716C978.227 534.483 979.004 533.593 980.045 532.92C981.087 532.239 982.432 531.898 984.08 531.898C985.557 531.898 986.849 532.201 987.957 532.807C989.065 533.403 989.927 534.312 990.543 535.534C991.158 536.746 991.466 538.28 991.466 540.136V554H988.114V540.364C988.114 538.65 987.669 537.314 986.778 536.358C985.888 535.392 984.667 534.909 983.114 534.909C982.044 534.909 981.087 535.141 980.244 535.605C979.411 536.069 978.753 536.746 978.27 537.636C977.787 538.527 977.545 539.606 977.545 540.875ZM1004.01 554.511C1002.63 554.511 1001.37 554.251 1000.25 553.73C999.121 553.2 998.226 552.438 997.563 551.443C996.9 550.439 996.569 549.227 996.569 547.807C996.569 546.557 996.815 545.544 997.308 544.767C997.8 543.981 998.458 543.366 999.282 542.92C1000.11 542.475 1001.01 542.144 1002.01 541.926C1003.01 541.699 1004.02 541.519 1005.03 541.386C1006.36 541.216 1007.44 541.088 1008.26 541.003C1009.09 540.908 1009.7 540.752 1010.08 540.534C1010.47 540.316 1010.66 539.937 1010.66 539.398V539.284C1010.66 537.883 1010.28 536.794 1009.51 536.017C1008.75 535.241 1007.6 534.852 1006.06 534.852C1004.46 534.852 1003.2 535.203 1002.29 535.903C1001.38 536.604 1000.75 537.352 1000.38 538.148L997.194 537.011C997.762 535.686 998.52 534.653 999.467 533.915C1000.42 533.167 1001.46 532.646 1002.59 532.352C1003.73 532.049 1004.85 531.898 1005.94 531.898C1006.64 531.898 1007.45 531.983 1008.36 532.153C1009.28 532.314 1010.16 532.651 1011.01 533.162C1011.88 533.673 1012.59 534.445 1013.16 535.477C1013.73 536.509 1014.01 537.892 1014.01 539.625V554H1010.66V551.045H1010.49C1010.26 551.519 1009.88 552.026 1009.35 552.565C1008.82 553.105 1008.12 553.564 1007.24 553.943C1006.36 554.322 1005.28 554.511 1004.01 554.511ZM1004.52 551.5C1005.85 551.5 1006.97 551.24 1007.88 550.719C1008.79 550.198 1009.49 549.526 1009.95 548.702C1010.42 547.878 1010.66 547.011 1010.66 546.102V543.034C1010.52 543.205 1010.21 543.361 1009.72 543.503C1009.25 543.635 1008.7 543.754 1008.07 543.858C1007.46 543.953 1006.86 544.038 1006.27 544.114C1005.69 544.18 1005.22 544.237 1004.86 544.284C1003.99 544.398 1003.18 544.582 1002.42 544.838C1001.67 545.084 1001.07 545.458 1000.6 545.96C1000.15 546.453 999.921 547.125 999.921 547.977C999.921 549.142 1000.35 550.023 1001.21 550.619C1002.08 551.206 1003.19 551.5 1004.52 551.5ZM1028.94 562.636C1027.32 562.636 1025.93 562.428 1024.76 562.011C1023.6 561.604 1022.63 561.064 1021.85 560.392C1021.08 559.729 1020.47 559.019 1020.02 558.261L1022.69 556.386C1022.99 556.784 1023.37 557.239 1023.84 557.75C1024.3 558.271 1024.94 558.721 1025.74 559.099C1026.56 559.488 1027.62 559.682 1028.94 559.682C1030.7 559.682 1032.15 559.256 1033.3 558.403C1034.44 557.551 1035.02 556.216 1035.02 554.398V549.966H1034.73C1034.49 550.364 1034.14 550.856 1033.68 551.443C1033.24 552.021 1032.59 552.537 1031.75 552.991C1030.92 553.437 1029.79 553.659 1028.37 553.659C1026.61 553.659 1025.03 553.242 1023.62 552.409C1022.23 551.576 1021.13 550.364 1020.32 548.773C1019.51 547.182 1019.11 545.25 1019.11 542.977C1019.11 540.742 1019.5 538.796 1020.29 537.139C1021.07 535.473 1022.17 534.185 1023.57 533.276C1024.97 532.357 1026.59 531.898 1028.43 531.898C1029.85 531.898 1030.97 532.134 1031.81 532.608C1032.65 533.072 1033.29 533.602 1033.74 534.199C1034.19 534.786 1034.54 535.269 1034.79 535.648H1035.13V532.182H1038.37V554.625C1038.37 556.5 1037.94 558.025 1037.09 559.199C1036.25 560.383 1035.11 561.249 1033.68 561.798C1032.26 562.357 1030.68 562.636 1028.94 562.636ZM1028.82 550.648C1030.17 550.648 1031.3 550.34 1032.23 549.724C1033.16 549.109 1033.87 548.223 1034.35 547.068C1034.83 545.913 1035.07 544.53 1035.07 542.92C1035.07 541.348 1034.84 539.961 1034.36 538.759C1033.89 537.556 1033.19 536.614 1032.26 535.932C1031.33 535.25 1030.19 534.909 1028.82 534.909C1027.4 534.909 1026.22 535.269 1025.27 535.989C1024.34 536.708 1023.63 537.674 1023.16 538.886C1022.69 540.098 1022.46 541.443 1022.46 542.92C1022.46 544.436 1022.7 545.776 1023.17 546.94C1023.65 548.096 1024.36 549.005 1025.3 549.668C1026.25 550.321 1027.42 550.648 1028.82 550.648ZM1053.65 554.455C1051.55 554.455 1049.74 553.991 1048.21 553.062C1046.7 552.125 1045.53 550.818 1044.7 549.142C1043.89 547.456 1043.48 545.496 1043.48 543.261C1043.48 541.027 1043.89 539.057 1044.7 537.352C1045.53 535.638 1046.67 534.303 1048.14 533.347C1049.62 532.381 1051.34 531.898 1053.31 531.898C1054.45 531.898 1055.57 532.087 1056.68 532.466C1057.79 532.845 1058.8 533.46 1059.7 534.312C1060.61 535.155 1061.34 536.273 1061.88 537.665C1062.42 539.057 1062.69 540.771 1062.69 542.807V544.227H1045.87V541.33H1059.28C1059.28 540.098 1059.03 539 1058.54 538.034C1058.06 537.068 1057.37 536.306 1056.47 535.747C1055.58 535.188 1054.52 534.909 1053.31 534.909C1051.98 534.909 1050.82 535.241 1049.85 535.903C1048.88 536.557 1048.14 537.409 1047.62 538.46C1047.1 539.511 1046.84 540.638 1046.84 541.841V543.773C1046.84 545.42 1047.12 546.817 1047.69 547.963C1048.27 549.099 1049.07 549.966 1050.09 550.562C1051.11 551.15 1052.3 551.443 1053.65 551.443C1054.53 551.443 1055.33 551.32 1056.04 551.074C1056.76 550.818 1057.38 550.439 1057.9 549.938C1058.42 549.426 1058.82 548.792 1059.11 548.034L1062.35 548.943C1062.01 550.042 1061.43 551.008 1060.63 551.841C1059.82 552.665 1058.83 553.309 1057.64 553.773C1056.46 554.227 1055.13 554.455 1053.65 554.455ZM1076.03 554.455C1074.21 554.455 1072.6 553.995 1071.21 553.077C1069.82 552.149 1068.73 550.842 1067.94 549.156C1067.16 547.461 1066.76 545.458 1066.76 543.148C1066.76 540.856 1067.16 538.867 1067.94 537.182C1068.73 535.496 1069.82 534.194 1071.22 533.276C1072.63 532.357 1074.25 531.898 1076.08 531.898C1077.5 531.898 1078.63 532.134 1079.45 532.608C1080.28 533.072 1080.92 533.602 1081.35 534.199C1081.8 534.786 1082.14 535.269 1082.39 535.648H1082.67V524.909H1086.03V554H1082.79V550.648H1082.39C1082.14 551.045 1081.79 551.547 1081.34 552.153C1080.88 552.75 1080.23 553.285 1079.39 553.759C1078.55 554.223 1077.43 554.455 1076.03 554.455ZM1076.48 551.443C1077.82 551.443 1078.96 551.093 1079.89 550.392C1080.82 549.682 1081.52 548.702 1082.01 547.452C1082.49 546.192 1082.73 544.739 1082.73 543.091C1082.73 541.462 1082.49 540.037 1082.02 538.815C1081.55 537.584 1080.85 536.628 1079.92 535.946C1078.99 535.255 1077.84 534.909 1076.48 534.909C1075.06 534.909 1073.88 535.274 1072.93 536.003C1071.99 536.723 1071.29 537.703 1070.81 538.943C1070.35 540.174 1070.12 541.557 1070.12 543.091C1070.12 544.644 1070.35 546.055 1070.83 547.324C1071.31 548.583 1072.02 549.587 1072.96 550.335C1073.9 551.074 1075.08 551.443 1076.48 551.443Z" fill="white"/>
<path d="M1001.5 624C1001.5 622.619 1000.38 621.5 999 621.5C997.619 621.5 996.5 622.619 996.5 624H999H1001.5ZM997.232 860.768C998.209 861.744 999.791 861.744 1000.77 860.768L1016.68 844.858C1017.65 843.882 1017.65 842.299 1016.68 841.322C1015.7 840.346 1014.12 840.346 1013.14 841.322L999 855.464L984.858 841.322C983.882 840.346 982.299 840.346 981.322 841.322C980.346 842.299 980.346 843.882 981.322 844.858L997.232 860.768ZM999 624H996.5V859H999H1001.5V624H999Z" fill="#7C7C7C"/>
<rect x="415" y="865" width="278" height="110" rx="15" fill="black" stroke="#3A3A3A" stroke-width="2"/>
<path d="M573.909 902.091V937H569.818L550.795 909.591H550.455V937H546.227V902.091H550.318L569.409 929.568H569.75V902.091H573.909ZM592.8 937.545C590.277 937.545 588.101 936.989 586.271 935.875C584.453 934.75 583.05 933.182 582.061 931.17C581.084 929.148 580.595 926.795 580.595 924.114C580.595 921.432 581.084 919.068 582.061 917.023C583.05 914.966 584.425 913.364 586.186 912.216C587.959 911.057 590.027 910.477 592.391 910.477C593.754 910.477 595.101 910.705 596.43 911.159C597.76 911.614 598.97 912.352 600.061 913.375C601.152 914.386 602.021 915.727 602.669 917.398C603.317 919.068 603.641 921.125 603.641 923.568V925.273H583.459V921.795H599.55C599.55 920.318 599.254 919 598.663 917.841C598.084 916.682 597.254 915.767 596.175 915.097C595.107 914.426 593.845 914.091 592.391 914.091C590.788 914.091 589.402 914.489 588.232 915.284C587.072 916.068 586.18 917.091 585.555 918.352C584.93 919.614 584.618 920.966 584.618 922.409V924.727C584.618 926.705 584.959 928.381 585.641 929.756C586.334 931.119 587.294 932.159 588.521 932.875C589.749 933.58 591.175 933.932 592.8 933.932C593.857 933.932 594.811 933.784 595.663 933.489C596.527 933.182 597.271 932.727 597.896 932.125C598.521 931.511 599.004 930.75 599.345 929.841L603.232 930.932C602.822 932.25 602.135 933.409 601.169 934.409C600.203 935.398 599.01 936.17 597.589 936.727C596.169 937.273 594.572 937.545 592.8 937.545ZM615.692 937L607.714 910.818H611.942L617.601 930.864H617.874L623.464 910.818H627.76L633.283 930.795H633.555L639.214 910.818H643.442L635.464 937H631.51L625.783 916.886H625.374L619.646 937H615.692ZM660.146 910.818V914.227H646.578V910.818H660.146ZM650.533 904.545H654.555V929.5C654.555 930.636 654.72 931.489 655.05 932.057C655.391 932.614 655.822 932.989 656.345 933.182C656.879 933.364 657.442 933.455 658.033 933.455C658.476 933.455 658.839 933.432 659.124 933.386C659.408 933.33 659.635 933.284 659.805 933.25L660.624 936.864C660.351 936.966 659.97 937.068 659.482 937.17C658.993 937.284 658.374 937.341 657.624 937.341C656.487 937.341 655.374 937.097 654.283 936.608C653.203 936.119 652.305 935.375 651.589 934.375C650.885 933.375 650.533 932.114 650.533 930.591V904.545Z" fill="white"/>
<path d="M499.167 895.917H459.834C457.118 895.917 454.917 898.118 454.917 900.833V910.667C454.917 913.382 457.118 915.583 459.834 915.583H499.167C501.882 915.583 504.084 913.382 504.084 910.667V900.833C504.084 898.118 501.882 895.917 499.167 895.917Z" stroke="#F36017" stroke-width="4" stroke-linecap="round" stroke-linejoin="round"/>
<path d="M499.167 925.417H459.834C457.118 925.417 454.917 927.618 454.917 930.333V940.167C454.917 942.882 457.118 945.083 459.834 945.083H499.167C501.882 945.083 504.084 942.882 504.084 940.167V930.333C504.084 927.618 501.882 925.417 499.167 925.417Z" stroke="#F36017" stroke-width="4" stroke-linecap="round" stroke-linejoin="round"/>
<path d="M464.75 905.75H464.774" stroke="#F36017" stroke-width="4" stroke-linecap="round" stroke-linejoin="round"/>
<path d="M464.75 935.25H464.774" stroke="#F36017" stroke-width="4" stroke-linecap="round" stroke-linejoin="round"/>
<path d="M499.167 895.917H459.834C457.118 895.917 454.917 898.118 454.917 900.833V910.667C454.917 913.382 457.118 915.583 459.834 915.583H499.167C501.882 915.583 504.084 913.382 504.084 910.667V900.833C504.084 898.118 501.882 895.917 499.167 895.917Z" stroke="#F36017" stroke-width="4" stroke-linecap="round" stroke-linejoin="round"/>
<path d="M499.167 925.417H459.834C457.118 925.417 454.917 927.618 454.917 930.333V940.167C454.917 942.882 457.118 945.083 459.834 945.083H499.167C501.882 945.083 504.084 942.882 504.084 940.167V930.333C504.084 927.618 501.882 925.417 499.167 925.417Z" stroke="#F36017" stroke-width="4" stroke-linecap="round" stroke-linejoin="round"/>
<path d="M464.75 905.75H464.774" stroke="#F36017" stroke-width="4" stroke-linecap="round" stroke-linejoin="round"/>
<path d="M464.75 935.25H464.774" stroke="#F36017" stroke-width="4" stroke-linecap="round" stroke-linejoin="round"/>
<circle cx="554" cy="488" r="130" fill="black" stroke="#3A3A3A" stroke-width="2"/>
<g clip-path="url(#clip1_19_506)">
<path d="M587.567 432.296C589.46 432.296 590.993 433.838 590.993 435.74C590.993 437.642 589.46 439.185 587.567 439.185C585.675 439.185 584.141 437.642 584.141 435.74C584.141 433.838 585.675 432.296 587.567 432.296ZM601.019 446.67C600.675 458.111 591.985 473.234 580.206 477.123C566.445 481.666 555.996 474.85 552.684 466.86C550.104 460.634 552.053 453.187 556.869 450.035C560.936 447.373 568.509 446.67 574.873 450.876C572.637 444.987 566.617 441.117 561.284 439.94C555.952 438.762 550.448 440.108 546.491 442.127C551.566 436.491 563.446 431.017 576.364 437.921C585.022 442.547 588.749 449.025 592.418 457.774C602.051 442.968 595.342 425.134 583.646 414.534C571.72 403.727 555.608 399.391 543.281 400.068C547.349 402.592 552.13 406.195 556.546 410.412C537.031 407.972 520.948 412.431 511 426.031C516.557 424.929 523.886 424.237 531.18 424.599C516.963 434.668 508.706 451.605 512.904 469.279C515.469 464.773 519.305 459.359 523.871 454.453C522.467 467.645 524.417 485.479 541.29 497C540.429 493.383 539.732 488.984 539.414 484.328C547.307 490.519 558.765 495.621 572.981 492.097C598.094 485.872 604.803 461.476 601.019 446.67Z" fill="#F36118"/>
</g>
<path d="M471.523 524.909H475.727L485.614 549.057H485.955L495.841 524.909H500.045V554H496.75V531.898H496.466L487.375 554H484.193L475.102 531.898H474.818V554H471.523V524.909ZM513.075 554.511C511.692 554.511 510.437 554.251 509.31 553.73C508.183 553.2 507.289 552.438 506.626 551.443C505.963 550.439 505.631 549.227 505.631 547.807C505.631 546.557 505.878 545.544 506.37 544.767C506.862 543.981 507.521 543.366 508.344 542.92C509.168 542.475 510.077 542.144 511.072 541.926C512.076 541.699 513.084 541.519 514.097 541.386C515.423 541.216 516.498 541.088 517.322 541.003C518.155 540.908 518.761 540.752 519.14 540.534C519.528 540.316 519.722 539.937 519.722 539.398V539.284C519.722 537.883 519.339 536.794 518.572 536.017C517.814 535.241 516.664 534.852 515.12 534.852C513.52 534.852 512.265 535.203 511.356 535.903C510.447 536.604 509.808 537.352 509.438 538.148L506.256 537.011C506.825 535.686 507.582 534.653 508.529 533.915C509.486 533.167 510.527 532.646 511.654 532.352C512.79 532.049 513.908 531.898 515.006 531.898C515.707 531.898 516.512 531.983 517.421 532.153C518.34 532.314 519.225 532.651 520.077 533.162C520.939 533.673 521.654 534.445 522.222 535.477C522.79 536.509 523.075 537.892 523.075 539.625V554H519.722V551.045H519.552C519.325 551.519 518.946 552.026 518.415 552.565C517.885 553.105 517.18 553.564 516.299 553.943C515.418 554.322 514.344 554.511 513.075 554.511ZM513.586 551.5C514.912 551.5 516.029 551.24 516.938 550.719C517.857 550.198 518.548 549.526 519.012 548.702C519.486 547.878 519.722 547.011 519.722 546.102V543.034C519.58 543.205 519.268 543.361 518.785 543.503C518.311 543.635 517.762 543.754 517.137 543.858C516.522 543.953 515.92 544.038 515.333 544.114C514.755 544.18 514.287 544.237 513.927 544.284C513.056 544.398 512.241 544.582 511.484 544.838C510.736 545.084 510.129 545.458 509.665 545.96C509.211 546.453 508.984 547.125 508.984 547.977C508.984 549.142 509.415 550.023 510.276 550.619C511.147 551.206 512.251 551.5 513.586 551.5ZM532.545 540.875V554H529.193V532.182H532.432V535.591H532.716C533.227 534.483 534.004 533.593 535.045 532.92C536.087 532.239 537.432 531.898 539.08 531.898C540.557 531.898 541.849 532.201 542.957 532.807C544.065 533.403 544.927 534.312 545.543 535.534C546.158 536.746 546.466 538.28 546.466 540.136V554H543.114V540.364C543.114 538.65 542.669 537.314 541.778 536.358C540.888 535.392 539.667 534.909 538.114 534.909C537.044 534.909 536.087 535.141 535.244 535.605C534.411 536.069 533.753 536.746 533.27 537.636C532.787 538.527 532.545 539.606 532.545 540.875ZM559.012 554.511C557.629 554.511 556.375 554.251 555.248 553.73C554.121 553.2 553.226 552.438 552.563 551.443C551.9 550.439 551.569 549.227 551.569 547.807C551.569 546.557 551.815 545.544 552.308 544.767C552.8 543.981 553.458 543.366 554.282 542.92C555.106 542.475 556.015 542.144 557.009 541.926C558.013 541.699 559.022 541.519 560.035 541.386C561.361 541.216 562.435 541.088 563.259 541.003C564.093 540.908 564.699 540.752 565.077 540.534C565.466 540.316 565.66 539.937 565.66 539.398V539.284C565.66 537.883 565.276 536.794 564.509 536.017C563.752 535.241 562.601 534.852 561.058 534.852C559.457 534.852 558.202 535.203 557.293 535.903C556.384 536.604 555.745 537.352 555.376 538.148L552.194 537.011C552.762 535.686 553.52 534.653 554.467 533.915C555.423 533.167 556.465 532.646 557.592 532.352C558.728 532.049 559.845 531.898 560.944 531.898C561.645 531.898 562.45 531.983 563.359 532.153C564.277 532.314 565.163 532.651 566.015 533.162C566.877 533.673 567.592 534.445 568.16 535.477C568.728 536.509 569.012 537.892 569.012 539.625V554H565.66V551.045H565.489C565.262 551.519 564.883 552.026 564.353 552.565C563.823 553.105 563.117 553.564 562.237 553.943C561.356 554.322 560.281 554.511 559.012 554.511ZM559.523 551.5C560.849 551.5 561.967 551.24 562.876 550.719C563.794 550.198 564.486 549.526 564.95 548.702C565.423 547.878 565.66 547.011 565.66 546.102V543.034C565.518 543.205 565.205 543.361 564.722 543.503C564.249 543.635 563.7 543.754 563.075 543.858C562.459 543.953 561.858 544.038 561.271 544.114C560.693 544.18 560.224 544.237 559.864 544.284C558.993 544.398 558.179 544.582 557.421 544.838C556.673 545.084 556.067 545.458 555.603 545.96C555.148 546.453 554.921 547.125 554.921 547.977C554.921 549.142 555.352 550.023 556.214 550.619C557.085 551.206 558.188 551.5 559.523 551.5ZM583.938 562.636C582.318 562.636 580.926 562.428 579.761 562.011C578.597 561.604 577.626 561.064 576.849 560.392C576.082 559.729 575.472 559.019 575.017 558.261L577.688 556.386C577.991 556.784 578.374 557.239 578.838 557.75C579.302 558.271 579.937 558.721 580.741 559.099C581.556 559.488 582.621 559.682 583.938 559.682C585.699 559.682 587.152 559.256 588.298 558.403C589.444 557.551 590.017 556.216 590.017 554.398V549.966H589.733C589.487 550.364 589.136 550.856 588.682 551.443C588.237 552.021 587.593 552.537 586.75 552.991C585.917 553.437 584.79 553.659 583.369 553.659C581.608 553.659 580.027 553.242 578.625 552.409C577.233 551.576 576.13 550.364 575.315 548.773C574.51 547.182 574.108 545.25 574.108 542.977C574.108 540.742 574.501 538.796 575.287 537.139C576.073 535.473 577.167 534.185 578.568 533.276C579.97 532.357 581.589 531.898 583.426 531.898C584.847 531.898 585.973 532.134 586.807 532.608C587.65 533.072 588.294 533.602 588.739 534.199C589.193 534.786 589.544 535.269 589.79 535.648H590.131V532.182H593.369V554.625C593.369 556.5 592.943 558.025 592.091 559.199C591.248 560.383 590.112 561.249 588.682 561.798C587.261 562.357 585.68 562.636 583.938 562.636ZM583.824 550.648C585.169 550.648 586.305 550.34 587.233 549.724C588.161 549.109 588.866 548.223 589.349 547.068C589.832 545.913 590.074 544.53 590.074 542.92C590.074 541.348 589.837 539.961 589.364 538.759C588.89 537.556 588.189 536.614 587.261 535.932C586.333 535.25 585.188 534.909 583.824 534.909C582.403 534.909 581.22 535.269 580.273 535.989C579.335 536.708 578.63 537.674 578.156 538.886C577.692 540.098 577.46 541.443 577.46 542.92C577.46 544.436 577.697 545.776 578.17 546.94C578.653 548.096 579.364 549.005 580.301 549.668C581.248 550.321 582.422 550.648 583.824 550.648ZM608.653 554.455C606.551 554.455 604.738 553.991 603.213 553.062C601.698 552.125 600.528 550.818 599.705 549.142C598.89 547.456 598.483 545.496 598.483 543.261C598.483 541.027 598.89 539.057 599.705 537.352C600.528 535.638 601.674 534.303 603.142 533.347C604.619 532.381 606.343 531.898 608.312 531.898C609.449 531.898 610.571 532.087 611.679 532.466C612.787 532.845 613.795 533.46 614.705 534.312C615.614 535.155 616.338 536.273 616.878 537.665C617.418 539.057 617.688 540.771 617.688 542.807V544.227H600.869V541.33H614.278C614.278 540.098 614.032 539 613.54 538.034C613.057 537.068 612.366 536.306 611.466 535.747C610.576 535.188 609.525 534.909 608.312 534.909C606.977 534.909 605.822 535.241 604.847 535.903C603.881 536.557 603.137 537.409 602.616 538.46C602.096 539.511 601.835 540.638 601.835 541.841V543.773C601.835 545.42 602.119 546.817 602.688 547.963C603.265 549.099 604.065 549.966 605.088 550.562C606.111 551.15 607.299 551.443 608.653 551.443C609.534 551.443 610.33 551.32 611.04 551.074C611.759 550.818 612.38 550.439 612.901 549.938C613.421 549.426 613.824 548.792 614.108 548.034L617.347 548.943C617.006 550.042 616.433 551.008 615.628 551.841C614.823 552.665 613.829 553.309 612.645 553.773C611.461 554.227 610.131 554.455 608.653 554.455ZM631.026 554.455C629.207 554.455 627.602 553.995 626.21 553.077C624.818 552.149 623.729 550.842 622.943 549.156C622.157 547.461 621.764 545.458 621.764 543.148C621.764 540.856 622.157 538.867 622.943 537.182C623.729 535.496 624.823 534.194 626.224 533.276C627.626 532.357 629.245 531.898 631.082 531.898C632.503 531.898 633.625 532.134 634.449 532.608C635.282 533.072 635.917 533.602 636.352 534.199C636.797 534.786 637.143 535.269 637.389 535.648H637.673V524.909H641.026V554H637.787V550.648H637.389C637.143 551.045 636.793 551.547 636.338 552.153C635.884 552.75 635.235 553.285 634.392 553.759C633.549 554.223 632.427 554.455 631.026 554.455ZM631.48 551.443C632.825 551.443 633.961 551.093 634.889 550.392C635.817 549.682 636.523 548.702 637.006 547.452C637.489 546.192 637.73 544.739 637.73 543.091C637.73 541.462 637.493 540.037 637.02 538.815C636.546 537.584 635.846 536.628 634.918 535.946C633.99 535.255 632.844 534.909 631.48 534.909C630.06 534.909 628.876 535.274 627.929 536.003C626.991 536.723 626.286 537.703 625.812 538.943C625.348 540.174 625.116 541.557 625.116 543.091C625.116 544.644 625.353 546.055 625.827 547.324C626.31 548.583 627.02 549.587 627.957 550.335C628.904 551.074 630.079 551.443 631.48 551.443Z" fill="white"/>
<path d="M341 121C341 119.619 339.881 118.5 338.5 118.5C337.119 118.5 336 119.619 336 121H338.5H341ZM552.232 353.768C553.209 354.744 554.791 354.744 555.768 353.768L571.678 337.858C572.654 336.882 572.654 335.299 571.678 334.322C570.701 333.346 569.118 333.346 568.142 334.322L554 348.464L539.858 334.322C538.882 333.346 537.299 333.346 536.322 334.322C535.346 335.299 535.346 336.882 536.322 337.858L552.232 353.768ZM338.5 121H336V212.5H338.5H341V121H338.5ZM362.5 236.5V239H530V236.5V234H362.5V236.5ZM554 260.5H551.5V352H554H556.5V260.5H554ZM530 236.5V239C541.874 239 551.5 248.626 551.5 260.5H554H556.5C556.5 245.864 544.636 234 530 234V236.5ZM338.5 212.5H336C336 227.136 347.864 239 362.5 239V236.5V234C350.626 234 341 224.374 341 212.5H338.5Z" fill="#7C7C7C"/>
<path d="M766 120C766 118.619 764.881 117.5 763.5 117.5C762.119 117.5 761 118.619 761 120H763.5H766ZM552.232 353.768C553.209 354.744 554.791 354.744 555.768 353.768L571.678 337.858C572.654 336.882 572.654 335.299 571.678 334.322C570.701 333.346 569.118 333.346 568.142 334.322L554 348.464L539.858 334.322C538.882 333.346 537.299 333.346 536.322 334.322C535.346 335.299 535.346 336.882 536.322 337.858L552.232 353.768ZM763.5 120H761V212H763.5H766V120H763.5ZM739.5 236V233.5H578V236V238.5H739.5V236ZM554 260H551.5V352H554H556.5V260H554ZM578 236V233.5C563.364 233.5 551.5 245.364 551.5 260H554H556.5C556.5 248.126 566.126 238.5 578 238.5V236ZM763.5 212H761C761 223.874 751.374 233.5 739.5 233.5V236V238.5C754.136 238.5 766 226.636 766 212H763.5Z" fill="#7C7C7C"/>
<path d="M766 120C766 118.619 764.881 117.5 763.5 117.5C762.119 117.5 761 118.619 761 120H763.5H766ZM997.232 353.768C998.209 354.744 999.791 354.744 1000.77 353.768L1016.68 337.858C1017.65 336.882 1017.65 335.299 1016.68 334.322C1015.7 333.346 1014.12 333.346 1013.14 334.322L999 348.464L984.858 334.322C983.882 333.346 982.299 333.346 981.322 334.322C980.346 335.299 980.346 336.882 981.322 337.858L997.232 353.768ZM763.5 120H761V212H763.5H766V120H763.5ZM787.5 236V238.5H975V236V233.5H787.5V236ZM999 260H996.5V352H999H1001.5V260H999ZM975 236V238.5C986.874 238.5 996.5 248.126 996.5 260H999H1001.5C1001.5 245.364 989.636 233.5 975 233.5V236ZM763.5 212H761C761 226.636 772.864 238.5 787.5 238.5V236V233.5C775.626 233.5 766 223.874 766 212H763.5Z" fill="#7C7C7C"/>
<path d="M1191 119C1191 117.619 1189.88 116.5 1188.5 116.5C1187.12 116.5 1186 117.619 1186 119H1188.5H1191ZM997.232 353.768C998.209 354.744 999.791 354.744 1000.77 353.768L1016.68 337.858C1017.65 336.882 1017.65 335.299 1016.68 334.322C1015.7 333.346 1014.12 333.346 1013.14 334.322L999 348.464L984.858 334.322C983.882 333.346 982.299 333.346 981.322 334.322C980.346 335.299 980.346 336.882 981.322 337.858L997.232 353.768ZM1188.5 119H1186V211.5H1188.5H1191V119H1188.5ZM1164.5 235.5V233H1023V235.5V238H1164.5V235.5ZM999 259.5H996.5V352H999H1001.5V259.5H999ZM1023 235.5V233C1008.36 233 996.5 244.864 996.5 259.5H999H1001.5C1001.5 247.626 1011.13 238 1023 238V235.5ZM1188.5 211.5H1186C1186 223.374 1176.37 233 1164.5 233V235.5V238C1179.14 238 1191 226.136 1191 211.5H1188.5Z" fill="#7C7C7C"/>
<path d="M556.5 624C556.5 622.619 555.381 621.5 554 621.5C552.619 621.5 551.5 622.619 551.5 624H554H556.5ZM552.232 860.768C553.209 861.744 554.791 861.744 555.768 860.768L571.678 844.858C572.654 843.882 572.654 842.299 571.678 841.322C570.701 840.346 569.118 840.346 568.142 841.322L554 855.464L539.858 841.322C538.882 840.346 537.299 840.346 536.322 841.322C535.346 842.299 535.346 843.882 536.322 844.858L552.232 860.768ZM554 624H551.5V859H554H556.5V624H554Z" fill="#7C7C7C"/>
<defs>
<filter id="filter0_d_19_506" x="234" y="29" width="67" height="67" filterUnits="userSpaceOnUse" color-interpolation-filters="sRGB">
<feFlood flood-opacity="0" result="BackgroundImageFix"/>
<feColorMatrix in="SourceAlpha" type="matrix" values="0 0 0 0 0 0 0 0 0 0 0 0 0 0 0 0 0 0 127 0" result="hardAlpha"/>
<feOffset dy="4"/>
<feGaussianBlur stdDeviation="2"/>
<feComposite in2="hardAlpha" operator="out"/>
<feColorMatrix type="matrix" values="0 0 0 0 0 0 0 0 0 0 0 0 0 0 0 0 0 0 0.25 0"/>
<feBlend mode="normal" in2="BackgroundImageFix" result="effect1_dropShadow_19_506"/>
<feBlend mode="normal" in="SourceGraphic" in2="effect1_dropShadow_19_506" result="shape"/>
</filter>
<filter id="filter1_d_19_506" x="659" y="28" width="67" height="67" filterUnits="userSpaceOnUse" color-interpolation-filters="sRGB">
<feFlood flood-opacity="0" result="BackgroundImageFix"/>
<feColorMatrix in="SourceAlpha" type="matrix" values="0 0 0 0 0 0 0 0 0 0 0 0 0 0 0 0 0 0 127 0" result="hardAlpha"/>
<feOffset dy="4"/>
<feGaussianBlur stdDeviation="2"/>
<feComposite in2="hardAlpha" operator="out"/>
<feColorMatrix type="matrix" values="0 0 0 0 0 0 0 0 0 0 0 0 0 0 0 0 0 0 0.25 0"/>
<feBlend mode="normal" in2="BackgroundImageFix" result="effect1_dropShadow_19_506"/>
<feBlend mode="normal" in="SourceGraphic" in2="effect1_dropShadow_19_506" result="shape"/>
</filter>
<filter id="filter2_d_19_506" x="1084" y="27" width="67" height="67" filterUnits="userSpaceOnUse" color-interpolation-filters="sRGB">
<feFlood flood-opacity="0" result="BackgroundImageFix"/>
<feColorMatrix in="SourceAlpha" type="matrix" values="0 0 0 0 0 0 0 0 0 0 0 0 0 0 0 0 0 0 127 0" result="hardAlpha"/>
<feOffset dy="4"/>
<feGaussianBlur stdDeviation="2"/>
<feComposite in2="hardAlpha" operator="out"/>
<feColorMatrix type="matrix" values="0 0 0 0 0 0 0 0 0 0 0 0 0 0 0 0 0 0 0.25 0"/>
<feBlend mode="normal" in2="BackgroundImageFix" result="effect1_dropShadow_19_506"/>
<feBlend mode="normal" in="SourceGraphic" in2="effect1_dropShadow_19_506" result="shape"/>
</filter>
<clipPath id="clip0_19_506">
<rect width="91" height="97" fill="white" transform="translate(956 400)"/>
</clipPath>
<clipPath id="clip1_19_506">
<rect width="91" height="97" fill="white" transform="translate(511 400)"/>
</clipPath>
</defs>
</svg>
